<svg width="60" height="60" viewBox="0 0 60 60" fill="none" xmlns="http://www.w3.org/2000/svg">
<circle cx="30" cy="30" r="30" fill="#F26950"/>
<path d="M45.0522 26.2369H33.763V14.9477C33.763 13.5624 32.6396 12.439 31.2543 12.439H28.7456C27.3603 12.439 26.2369 13.5624 26.2369 14.9477V26.2369H14.9477C13.5624 26.2369 12.439 27.3603 12.439 28.7456V31.2543C12.439 32.6396 13.5624 33.763 14.9477 33.763H26.2369V45.0522C26.2369 46.4375 27.3603 47.5609 28.7456 47.5609H31.2543C32.6396 47.5609 33.763 46.4375 33.763 45.0522V33.763H45.0522C46.4375 33.763 47.5609 32.6396 47.5609 31.2543V28.7456C47.5609 27.3603 46.4375 26.2369 45.0522 26.2369Z" fill="white"/>
</svg>
