<svg width="40" height="35" viewBox="0 0 40 35" fill="none" xmlns="http://www.w3.org/2000/svg">
<path d="M23.125 0H38.125C39.1605 0 40 0.839453 40 1.875V14.375C40 15.4105 39.1605 16.25 38.125 16.25H23.125C22.0895 16.25 21.25 15.4105 21.25 14.375V1.875C21.25 0.839453 22.0895 0 23.125 0ZM16.875 0H1.875C0.839453 0 0 0.839453 0 1.875V14.375C0 15.4105 0.839453 16.25 1.875 16.25H16.875C17.9105 16.25 18.75 15.4105 18.75 14.375V1.875C18.75 0.839453 17.9105 0 16.875 0ZM0 20.625V33.125C0 34.1605 0.839453 35 1.875 35H16.875C17.9105 35 18.75 34.1605 18.75 33.125V20.625C18.75 19.5895 17.9105 18.75 16.875 18.75H1.875C0.839453 18.75 0 19.5895 0 20.625ZM23.125 35H38.125C39.1605 35 40 34.1605 40 33.125V20.625C40 19.5895 39.1605 18.75 38.125 18.75H23.125C22.0895 18.75 21.25 19.5895 21.25 20.625V33.125C21.25 34.1605 22.0895 35 23.125 35Z" fill="white" fill-opacity="0.5"/>
</svg>
