<svg width="40" height="46" viewBox="0 0 40 46" fill="none" xmlns="http://www.w3.org/2000/svg">
<path d="M40 10V41.4286C40 43.7946 38.0804 45.7143 35.7143 45.7143H4.28571C1.91964 45.7143 0 43.7946 0 41.4286V10C0 7.63393 1.91964 5.71429 4.28571 5.71429H8.57143V1.07143C8.57143 0.482143 9.05357 0 9.64286 0H13.2143C13.8036 0 14.2857 0.482143 14.2857 1.07143V5.71429H25.7143V1.07143C25.7143 0.482143 26.1964 0 26.7857 0H30.3571C30.9464 0 31.4286 0.482143 31.4286 1.07143V5.71429H35.7143C38.0804 5.71429 40 7.63393 40 10ZM35.7143 40.8929V14.2857H21.0714H4.28571V40.8929C4.28571 41.1875 4.52679 41.4286 4.82143 41.4286H35.1786C35.4732 41.4286 35.7143 41.1875 35.7143 40.8929Z" fill="white"/>
</svg>
