<svg width="52" height="52" viewBox="0 0 52 52" fill="none" xmlns="http://www.w3.org/2000/svg">
<rect width="52" height="52" rx="5" fill="white"/>
<path d="M38.7857 22.1786H28.8214V12.2143C28.8214 10.9916 27.8298 10 26.6071 10H24.3929C23.1702 10 22.1786 10.9916 22.1786 12.2143V22.1786H12.2143C10.9916 22.1786 10 23.1702 10 24.3929V26.6071C10 27.8298 10.9916 28.8214 12.2143 28.8214H22.1786V38.7857C22.1786 40.0084 23.1702 41 24.3929 41H26.6071C27.8298 41 28.8214 40.0084 28.8214 38.7857V28.8214H38.7857C40.0084 28.8214 41 27.8298 41 26.6071V24.3929C41 23.1702 40.0084 22.1786 38.7857 22.1786Z" fill="#333333"/>
</svg>
