<svg width="20" height="23" viewBox="0 0 20 23" fill="none" xmlns="http://www.w3.org/2000/svg">
<path d="M15 13.0357V14.1071C15 14.4018 14.7589 14.6429 14.4643 14.6429H11.0714V18.0357C11.0714 18.3304 10.8304 18.5714 10.5357 18.5714H9.46429C9.16964 18.5714 8.92857 18.3304 8.92857 18.0357V14.6429H5.53571C5.24107 14.6429 5 14.4018 5 14.1071V13.0357C5 12.7411 5.24107 12.5 5.53571 12.5H8.92857V9.10714C8.92857 8.8125 9.16964 8.57143 9.46429 8.57143H10.5357C10.8304 8.57143 11.0714 8.8125 11.0714 9.10714V12.5H14.4643C14.7589 12.5 15 12.7411 15 13.0357ZM20 5V20.7143C20 21.8973 19.0402 22.8571 17.8571 22.8571H2.14286C0.959821 22.8571 0 21.8973 0 20.7143V5C0 3.81696 0.959821 2.85714 2.14286 2.85714H4.28571V0.535714C4.28571 0.241071 4.52679 0 4.82143 0H6.60714C6.90179 0 7.14286 0.241071 7.14286 0.535714V2.85714H12.8571V0.535714C12.8571 0.241071 13.0982 0 13.3929 0H15.1786C15.4732 0 15.7143 0.241071 15.7143 0.535714V2.85714H17.8571C19.0402 2.85714 20 3.81696 20 5ZM17.8571 20.4464V7.14286H2.14286V20.4464C2.14286 20.5938 2.26339 20.7143 2.41071 20.7143H17.5893C17.7366 20.7143 17.8571 20.5938 17.8571 20.4464Z" fill="#333333"/>
</svg>
